<svg width="420" height="425" viewBox="0 0 420 425" fill="none" xmlns="http://www.w3.org/2000/svg">
<mask id="path-1-inside-1_3_59" fill="white">
<path fill-rule="evenodd" clip-rule="evenodd" d="M214 425H202V304C202 249.876 245.876 206 300 206H305C307.341 206 309.662 206.082 311.962 206.243C311.987 207.159 312 208.078 312 209V327C312 381.124 268.124 425 214 425Z"/>
</mask>
<path d="M202 425V444H183V425H202ZM311.962 206.243L313.292 187.29L330.479 188.496L330.955 205.719L311.962 206.243ZM202 406H214V444H202V406ZM221 304V425H183V304H221ZM300 225C256.37 225 221 260.37 221 304H183C183 239.383 235.383 187 300 187V225ZM305 225H300V187H305V225ZM310.632 225.197C308.774 225.066 306.897 225 305 225V187C307.785 187 310.55 187.098 313.292 187.29L310.632 225.197ZM293 209C293 208.253 292.99 207.509 292.969 206.768L330.955 205.719C330.985 206.809 331 207.903 331 209H293ZM293 327V209H331V327H293ZM214 406C257.63 406 293 370.63 293 327H331C331 391.617 278.617 444 214 444V406Z" fill="#E3B183" mask="url(#path-1-inside-1_3_59)"/>
<mask id="path-3-inside-2_3_59" fill="white">
<path fill-rule="evenodd" clip-rule="evenodd" d="M121 220H109V99C109 44.8761 152.876 1 207 1H212C214.341 1 216.662 1.08206 218.962 1.24347C218.987 2.15923 219 3.07812 219 4V122C219 176.124 175.124 220 121 220Z"/>
</mask>
<path d="M109 220V239H90V220H109ZM218.962 1.24347L220.292 -17.7099L237.479 -16.5036L237.955 0.718925L218.962 1.24347ZM109 201H121V239H109V201ZM128 99V220H90V99H128ZM207 20C163.37 20 128 55.3695 128 99H90C90 34.3827 142.383 -18 207 -18V20ZM212 20H207V-18H212V20ZM217.632 20.1968C215.774 20.0665 213.897 20 212 20V-18C214.785 -18 217.55 -17.9024 220.292 -17.7099L217.632 20.1968ZM200 4C200 3.25299 199.99 2.50895 199.969 1.76801L237.955 0.718925C237.985 1.8095 238 2.90326 238 4H200ZM200 122V4H238V122H200ZM121 201C164.63 201 200 165.63 200 122H238C238 186.617 185.617 239 121 239V201Z" fill="#E3B183" mask="url(#path-3-inside-2_3_59)"/>
<mask id="path-5-inside-3_3_59" fill="white">
<path fill-rule="evenodd" clip-rule="evenodd" d="M0 220V208C0 153.876 43.8762 110 98.0001 110H122.955C122.985 110.996 123 111.996 123 113V220H0Z"/>
</mask>
<path d="M0 220H-19V239H0V220ZM122.955 110L141.946 109.429L141.392 91H122.955V110ZM123 220V239H142V220H123ZM19 220V208H-19V220H19ZM19 208C19 164.37 54.3696 129 98.0001 129V91C33.3828 91 -19 143.383 -19 208H19ZM98.0001 129H122.955V91H98.0001V129ZM103.964 110.571C103.988 111.377 104 112.187 104 113H142C142 111.806 141.982 110.616 141.946 109.429L103.964 110.571ZM104 113V220H142V113H104ZM123 201H0V239H123V201Z" fill="#E3B183" mask="url(#path-5-inside-3_3_59)"/>
<mask id="path-7-inside-4_3_59" fill="white">
<path fill-rule="evenodd" clip-rule="evenodd" d="M420 205V217C420 271.124 376.124 315 322 315H294.045C294.015 314.004 294 313.004 294 312V205H420Z"/>
</mask>
<path d="M420 205H439V186H420V205ZM294.045 315L275.054 315.571L275.608 334H294.045V315ZM294 205V186H275V205H294ZM401 205V217H439V205H401ZM401 217C401 260.63 365.63 296 322 296V334C386.617 334 439 281.617 439 217H401ZM322 296H294.045V334H322V296ZM313.036 314.429C313.012 313.623 313 312.813 313 312H275C275 313.194 275.018 314.384 275.054 315.571L313.036 314.429ZM313 312V205H275V312H313ZM294 224H420V186H294V224Z" fill="#E3B183" mask="url(#path-7-inside-4_3_59)"/>
<mask id="path-9-inside-5_3_59" fill="white">
<path fill-rule="evenodd" clip-rule="evenodd" d="M201 0H213C267.124 0 311 43.8761 311 98V110H322C376.124 110 420 153.876 420 208V220H299C244.876 220 201 176.124 201 122V121V117V0Z"/>
</mask>
<path d="M201 0V-19H182V0H201ZM311 110H292V129H311V110ZM420 220V239H439V220H420ZM213 -19H201V19H213V-19ZM330 98C330 33.3827 277.617 -19 213 -19V19C256.63 19 292 54.3695 292 98H330ZM330 110V98H292V110H330ZM311 129H322V91H311V129ZM322 129C365.63 129 401 164.37 401 208H439C439 143.383 386.617 91 322 91V129ZM401 208V220H439V208H401ZM420 201H299V239H420V201ZM299 201C255.37 201 220 165.63 220 122H182C182 186.617 234.383 239 299 239V201ZM220 122V121H182V122H220ZM220 121V117H182V121H220ZM182 0V117H220V0H182Z" fill="#E3B183" mask="url(#path-9-inside-5_3_59)"/>
<mask id="path-11-inside-6_3_59" fill="white">
<path fill-rule="evenodd" clip-rule="evenodd" d="M219 425H207C152.876 425 109 381.124 109 327V315H98C43.8761 315 0 271.124 0 217V205H121C175.124 205 219 248.876 219 303V304V308V425Z"/>
</mask>
<path d="M219 425V444H238V425H219ZM109 315H128V296H109V315ZM0 205V186H-19V205H0ZM207 444H219V406H207V444ZM90 327C90 391.617 142.383 444 207 444V406C163.37 406 128 370.63 128 327H90ZM90 315V327H128V315H90ZM109 296H98V334H109V296ZM98 296C54.3695 296 19 260.63 19 217H-19C-19 281.617 33.3827 334 98 334V296ZM19 217V205H-19V217H19ZM0 224H121V186H0V224ZM121 224C164.63 224 200 259.37 200 303H238C238 238.383 185.617 186 121 186V224ZM200 303V304H238V303H200ZM200 304V308H238V304H200ZM238 425V308H200V425H238Z" fill="#E3B183" mask="url(#path-11-inside-6_3_59)"/>
</svg>
