<svg width="598" height="599" viewBox="0 0 598 599" fill="none" xmlns="http://www.w3.org/2000/svg">
<mask id="path-1-inside-1_3_59" fill="white">
<path fill-rule="evenodd" clip-rule="evenodd" d="M452.089 446.932L443.603 455.417L358.043 369.857C319.772 331.586 319.772 269.536 358.043 231.264L361.579 227.729C363.234 226.074 364.934 224.49 366.674 222.978C367.339 223.608 367.998 224.248 368.65 224.9L452.089 308.339C490.36 346.61 490.36 408.66 452.089 446.932Z"/>
</mask>
<path d="M443.603 455.417L457.038 468.852L443.603 482.287L430.168 468.852L443.603 455.417ZM366.674 222.978L354.213 208.635L367.218 197.335L379.733 209.177L366.674 222.978ZM430.168 441.982L438.654 433.497L465.524 460.367L457.038 468.852L430.168 441.982ZM371.478 356.422L457.038 441.982L430.168 468.852L344.608 383.292L371.478 356.422ZM371.478 244.699C340.627 275.551 340.627 325.571 371.478 356.422L344.608 383.292C298.917 337.601 298.917 263.521 344.608 217.829L371.478 244.699ZM375.014 241.164L371.478 244.699L344.608 217.829L348.144 214.294L375.014 241.164ZM379.135 237.321C377.73 238.542 376.355 239.823 375.014 241.164L348.144 214.294C350.113 212.324 352.138 210.438 354.213 208.635L379.135 237.321ZM355.215 238.335C354.687 237.807 354.153 237.288 353.615 236.779L379.733 209.177C380.525 209.927 381.31 210.69 382.085 211.465L355.215 238.335ZM438.654 321.774L355.215 238.335L382.085 211.465L465.524 294.904L438.654 321.774ZM438.654 433.497C469.505 402.645 469.505 352.625 438.654 321.774L465.524 294.904C511.215 340.595 511.215 414.675 465.524 460.367L438.654 433.497Z" fill="#E3B183" mask="url(#path-1-inside-1_3_59)"/>
<mask id="path-3-inside-2_3_59" fill="white">
<path fill-rule="evenodd" clip-rule="evenodd" d="M241.371 367.736L232.886 376.221L147.326 290.661C109.054 252.39 109.054 190.34 147.326 152.068L150.861 148.533C152.516 146.878 154.216 145.294 155.956 143.782C156.622 144.412 157.28 145.052 157.932 145.704L241.371 229.143C279.642 267.414 279.642 329.464 241.371 367.736Z"/>
</mask>
<path d="M232.886 376.221L246.321 389.656L232.886 403.091L219.45 389.656L232.886 376.221ZM155.956 143.782L143.495 129.439L156.501 118.139L169.015 129.981L155.956 143.782ZM219.45 362.786L227.936 354.301L254.806 381.171L246.321 389.656L219.45 362.786ZM160.761 277.226L246.321 362.786L219.45 389.656L133.891 304.096L160.761 277.226ZM160.761 165.503C129.909 196.355 129.909 246.375 160.761 277.226L133.891 304.096C88.1992 258.405 88.1992 184.325 133.891 138.633L160.761 165.503ZM164.296 161.968L160.761 165.503L133.891 138.633L137.426 135.098L164.296 161.968ZM168.418 158.125C167.012 159.346 165.637 160.627 164.296 161.968L137.426 135.098C139.395 133.128 141.42 131.242 143.495 129.439L168.418 158.125ZM144.497 159.139C143.969 158.611 143.436 158.092 142.897 157.583L169.015 129.981C169.808 130.731 170.592 131.494 171.367 132.269L144.497 159.139ZM227.936 242.578L144.497 159.139L171.367 132.269L254.806 215.708L227.936 242.578ZM227.936 354.301C258.787 323.449 258.787 273.429 227.936 242.578L254.806 215.708C300.497 261.399 300.497 335.479 254.806 381.171L227.936 354.301Z" fill="#E3B183" mask="url(#path-3-inside-2_3_59)"/>
<mask id="path-5-inside-3_3_59" fill="white">
<path fill-rule="evenodd" clip-rule="evenodd" d="M155.811 453.296L147.326 444.81C109.054 406.539 109.054 344.489 147.326 306.217L164.971 288.572C165.697 289.255 166.415 289.952 167.125 290.661L242.785 366.322L155.811 453.296Z"/>
</mask>
<path d="M155.811 453.296L142.376 466.731L155.811 480.166L169.246 466.731L155.811 453.296ZM164.971 288.572L177.997 274.739L164.573 262.1L151.536 275.137L164.971 288.572ZM242.785 366.322L256.22 379.757L269.655 366.322L256.22 352.887L242.785 366.322ZM169.246 439.861L160.761 431.375L133.891 458.245L142.376 466.731L169.246 439.861ZM160.761 431.375C129.909 400.524 129.909 350.504 160.761 319.652L133.891 292.782C88.1993 338.474 88.1992 412.554 133.891 458.245L160.761 431.375ZM160.761 319.652L178.406 302.007L151.536 275.137L133.891 292.782L160.761 319.652ZM151.946 302.404C152.533 302.957 153.115 303.521 153.69 304.096L180.56 277.226C179.715 276.382 178.861 275.553 177.997 274.739L151.946 302.404ZM153.69 304.096L229.35 379.757L256.22 352.887L180.56 277.226L153.69 304.096ZM229.35 352.887L142.376 439.861L169.246 466.731L256.22 379.757L229.35 352.887Z" fill="#E3B183" mask="url(#path-5-inside-3_3_59)"/>
<mask id="path-7-inside-4_3_59" fill="white">
<path fill-rule="evenodd" clip-rule="evenodd" d="M442.189 145.704L450.674 154.19C488.946 192.461 488.946 254.511 450.674 292.782L430.907 312.55C430.182 311.866 429.464 311.17 428.754 310.46L353.094 234.8L442.189 145.704Z"/>
</mask>
<path d="M442.189 145.704L455.624 132.269L442.189 118.834L428.754 132.269L442.189 145.704ZM430.907 312.55L417.882 326.382L431.305 339.022L444.342 325.985L430.907 312.55ZM353.094 234.8L339.659 221.365L326.224 234.8L339.659 248.235L353.094 234.8ZM428.754 159.139L437.239 167.625L464.109 140.755L455.624 132.269L428.754 159.139ZM437.239 167.625C468.091 198.476 468.091 248.496 437.239 279.347L464.109 306.218C509.801 260.526 509.801 186.446 464.109 140.755L437.239 167.625ZM437.239 279.347L417.472 299.115L444.342 325.985L464.109 306.218L437.239 279.347ZM443.932 298.717C443.345 298.164 442.764 297.6 442.189 297.025L415.319 323.895C416.163 324.739 417.018 325.569 417.882 326.382L443.932 298.717ZM442.189 297.025L366.529 221.365L339.659 248.235L415.319 323.895L442.189 297.025ZM366.529 248.235L455.624 159.139L428.754 132.269L339.659 221.365L366.529 248.235Z" fill="#E3B183" mask="url(#path-7-inside-4_3_59)"/>
<mask id="path-9-inside-5_3_59" fill="white">
<path fill-rule="evenodd" clip-rule="evenodd" d="M142.376 155.604L150.861 147.118C189.133 108.847 251.183 108.847 289.454 147.118L297.939 155.604L305.718 147.826C343.989 109.554 406.039 109.554 444.31 147.826L452.796 156.311L367.236 241.871C328.964 280.142 266.914 280.142 228.643 241.871L227.936 241.164L225.107 238.335L142.376 155.604Z"/>
</mask>
<path d="M142.376 155.604L128.941 142.169L115.506 155.604L128.941 169.039L142.376 155.604ZM297.939 155.604L284.504 169.039L297.939 182.474L311.374 169.039L297.939 155.604ZM452.796 156.311L466.231 169.746L479.666 156.311L466.231 142.876L452.796 156.311ZM137.426 133.683L128.941 142.169L155.811 169.039L164.296 160.554L137.426 133.683ZM302.889 133.683C257.198 87.9921 183.117 87.9921 137.426 133.683L164.296 160.554C195.148 129.702 245.168 129.702 276.019 160.554L302.889 133.683ZM311.374 142.169L302.889 133.683L276.019 160.554L284.504 169.039L311.374 142.169ZM311.374 169.039L319.153 161.261L292.282 134.391L284.504 142.169L311.374 169.039ZM319.153 161.261C350.004 130.409 400.024 130.409 430.875 161.261L457.745 134.391C412.054 88.6992 337.974 88.6992 292.282 134.391L319.153 161.261ZM430.875 161.261L439.361 169.746L466.231 142.876L457.745 134.391L430.875 161.261ZM439.361 142.876L353.801 228.436L380.671 255.306L466.231 169.746L439.361 142.876ZM353.801 228.436C322.949 259.287 272.929 259.287 242.078 228.436L215.208 255.306C260.899 300.997 334.979 300.997 380.671 255.306L353.801 228.436ZM242.078 228.436L241.371 227.729L214.501 254.599L215.208 255.306L242.078 228.436ZM241.371 227.729L238.542 224.9L211.672 251.77L214.501 254.599L241.371 227.729ZM128.941 169.039L211.672 251.77L238.542 224.9L155.811 142.169L128.941 169.039Z" fill="#E3B183" mask="url(#path-9-inside-5_3_59)"/>
<mask id="path-11-inside-6_3_59" fill="white">
<path fill-rule="evenodd" clip-rule="evenodd" d="M455.624 443.396L447.139 451.882C408.867 490.153 346.817 490.153 308.546 451.882L300.061 443.396L292.282 451.174C254.011 489.446 191.961 489.446 153.69 451.174L145.204 442.689L230.764 357.129C269.036 318.858 331.086 318.858 369.357 357.129L370.064 357.836L372.893 360.665L455.624 443.396Z"/>
</mask>
<path d="M455.624 443.396L469.059 456.831L482.494 443.396L469.059 429.961L455.624 443.396ZM300.061 443.396L313.496 429.961L300.061 416.526L286.626 429.961L300.061 443.396ZM145.204 442.689L131.769 429.254L118.334 442.689L131.769 456.124L145.204 442.689ZM460.574 465.317L469.059 456.831L442.189 429.961L433.704 438.446L460.574 465.317ZM295.111 465.317C340.802 511.008 414.883 511.008 460.574 465.317L433.704 438.446C402.852 469.298 352.832 469.298 321.981 438.446L295.111 465.317ZM286.626 456.831L295.111 465.317L321.981 438.446L313.496 429.961L286.626 456.831ZM286.626 429.961L278.847 437.739L305.718 464.609L313.496 456.831L286.626 429.961ZM278.847 437.739C247.996 468.591 197.976 468.591 167.125 437.739L140.255 464.609C185.946 510.301 260.026 510.301 305.718 464.609L278.847 437.739ZM167.125 437.739L158.639 429.254L131.769 456.124L140.255 464.609L167.125 437.739ZM158.639 456.124L244.199 370.564L217.329 343.694L131.769 429.254L158.639 456.124ZM244.199 370.564C275.051 339.713 325.071 339.713 355.922 370.564L382.792 343.694C337.101 298.003 263.021 298.003 217.329 343.694L244.199 370.564ZM355.922 370.564L356.629 371.271L383.499 344.401L382.792 343.694L355.922 370.564ZM356.629 371.271L359.458 374.1L386.328 347.23L383.499 344.401L356.629 371.271ZM469.059 429.961L386.328 347.23L359.458 374.1L442.189 456.831L469.059 429.961Z" fill="#E3B183" mask="url(#path-11-inside-6_3_59)"/>
</svg>
